<svg width="18" height="17" viewBox="0 0 18 17" fill="none" xmlns="http://www.w3.org/2000/svg">

    <path
        d="M5.2646 6.67857C4.65595 6.67857 4.16421 7.22121 4.16421 7.89286C4.16421 8.56451 4.65595 9.10714 5.2646 9.10714C5.87326 9.10714 6.365 8.56451 6.365 7.89286C6.365 7.22121 5.87326 6.67857 5.2646 6.67857ZM9.11598 6.67857C8.50733 6.67857 8.01559 7.22121 8.01559 7.89286C8.01559 8.56451 8.50733 9.10714 9.11598 9.10714C9.72464 9.10714 10.2164 8.56451 10.2164 7.89286C10.2164 7.22121 9.72464 6.67857 9.11598 6.67857ZM12.9674 6.67857C12.3587 6.67857 11.867 7.22121 11.867 7.89286C11.867 8.56451 12.3587 9.10714 12.9674 9.10714C13.576 9.10714 14.0678 8.56451 14.0678 7.89286C14.0678 7.22121 13.576 6.67857 12.9674 6.67857ZM9.11598 0C4.25362 0 0.312829 3.53281 0.312829 7.89286C0.312829 9.69911 0.997137 11.3536 2.13192 12.6855C1.61955 14.1806 0.55354 15.448 0.536347 15.4632C0.30939 15.7288 0.247493 16.1158 0.378165 16.4498C0.508837 16.7837 0.808006 17 1.13812 17C3.25294 17 4.92073 16.0248 5.9214 15.2431C6.91519 15.5884 7.98808 15.7857 9.11598 15.7857C13.9783 15.7857 17.9191 12.2529 17.9191 7.89286C17.9191 3.53281 13.9783 0 9.11598 0ZM9.11598 13.9643C8.19784 13.9643 7.29002 13.8087 6.42002 13.5051L5.63942 13.2319L4.96887 13.7556C4.47713 14.1388 3.80314 14.5676 2.9916 14.856C3.24263 14.3969 3.48678 13.8808 3.67591 13.3306L4.04041 12.2643L3.33204 11.4371C2.70963 10.7047 1.96342 9.4942 1.96342 7.89286C1.96342 4.54598 5.17176 1.82143 9.11598 1.82143C13.0602 1.82143 16.2685 4.54598 16.2685 7.89286C16.2685 11.2397 13.0602 13.9643 9.11598 13.9643Z"
        fill="#363636" />
</svg>
