<svg width="31" height="30" viewBox="0 0 31 30" fill="none" xmlns="http://www.w3.org/2000/svg">
<path d="M22.2108 8.71219C22.0877 8.58906 21.9328 8.50263 21.7634 8.46256C21.5941 8.42249 21.4169 8.43037 21.2517 8.48531L12.8142 11.2978C12.676 11.3439 12.5504 11.4215 12.4474 11.5245C12.3444 11.6275 12.2668 11.7531 12.2208 11.8912L9.40826 20.3287C9.35317 20.4939 9.34518 20.6712 9.38517 20.8407C9.42517 21.0101 9.51157 21.1651 9.63469 21.2882C9.75782 21.4114 9.91281 21.4978 10.0823 21.5378C10.2518 21.5778 10.429 21.5698 10.5942 21.5147L19.0317 18.7022C19.1699 18.6561 19.2954 18.5785 19.3985 18.4755C19.5015 18.3725 19.5791 18.2469 19.6251 18.1087L22.4376 9.67125C22.4926 9.50608 22.5005 9.32889 22.4604 9.1595C22.4203 8.99011 22.3339 8.83523 22.2108 8.71219ZM11.7801 19.1437L13.852 12.93L17.9948 17.0728L11.7801 19.1437Z" fill="#363636"/>
<path d="M15.9229 28.125C13.327 28.125 10.7894 27.3552 8.631 25.913C6.4726 24.4709 4.79034 22.421 3.79694 20.0227C2.80354 17.6244 2.54362 14.9854 3.05005 12.4394C3.55648 9.89345 4.80652 7.55479 6.64208 5.71923C8.47764 3.88367 10.8163 2.63363 13.3623 2.1272C15.9083 1.62077 18.5473 1.88069 20.9456 2.87409C23.3439 3.86749 25.3937 5.54975 26.8359 7.70815C28.2781 9.86654 29.0479 12.4041 29.0479 15C29.0439 18.4798 27.6598 21.8158 25.1992 24.2764C22.7387 26.737 19.4026 28.121 15.9229 28.125ZM15.9229 3.75001C13.6978 3.75001 11.5227 4.40981 9.67269 5.64597C7.82264 6.88214 6.3807 8.63915 5.52921 10.6948C4.67773 12.7505 4.45494 15.0125 4.88902 17.1948C5.32311 19.3771 6.39457 21.3816 7.96791 22.955C9.54125 24.5283 11.5458 25.5998 13.7281 26.0338C15.9104 26.4679 18.1724 26.2451 20.228 25.3937C22.2837 24.5422 24.0407 23.1002 25.2769 21.2502C26.5131 19.4001 27.1729 17.225 27.1729 15C27.1694 12.0174 25.983 9.15792 23.874 7.04889C21.7649 4.93986 18.9055 3.75348 15.9229 3.75001Z" fill="#363636"/>
</svg>
