<svg width="27" height="26" viewBox="0 0 27 26" fill="none" xmlns="http://www.w3.org/2000/svg">
    <path
        d="M26.4397 12.7949L14.3723 0.736335C14.2854 0.649276 14.1822 0.580208 14.0686 0.533083C13.955 0.485957 13.8332 0.4617 13.7102 0.4617C13.5872 0.4617 13.4654 0.485957 13.3518 0.533083C13.2382 0.580208 13.135 0.649276 13.0481 0.736335L0.980713 12.7949C0.62915 13.1465 0.429932 13.624 0.429932 14.1221C0.429932 15.1563 1.27075 15.9971 2.30493 15.9971H3.57642V24.6016C3.57642 25.1201 3.99536 25.5391 4.51392 25.5391H11.8352V18.9766H15.1165V25.5391H22.9065C23.425 25.5391 23.844 25.1201 23.844 24.6016V15.9971H25.1155C25.6135 15.9971 26.0911 15.8008 26.4426 15.4463C27.1721 14.7139 27.1721 13.5274 26.4397 12.7949Z"
        fill="#05101C" />
</svg>
