<svg width="20" height="19" viewBox="0 0 20 19" fill="none" xmlns="http://www.w3.org/2000/svg">
<path d="M17.1486 1.15625C14.6 -0.71875 11.4528 0.156251 9.75375 2.30208C8.05468 0.156251 4.90753 -0.729166 2.35892 1.15625C1.00738 2.15625 0.157847 3.84375 0.0999241 5.625C-0.0352295 9.66667 3.28569 12.9063 8.35395 17.875L8.45049 17.9688C9.18418 18.6875 10.3137 18.6875 11.0474 17.9583L11.1536 17.8542C16.2218 12.8958 19.5331 9.65625 19.4076 5.61458C19.3497 3.84375 18.5001 2.15625 17.1486 1.15625ZM9.85029 16.3229L9.75375 16.4271L9.65722 16.3229C5.06199 11.8333 2.03069 8.86458 2.03069 5.85417C2.03069 3.77083 3.47876 2.20833 5.40953 2.20833C6.89622 2.20833 8.34429 3.23958 8.85595 4.66667H10.6612C11.1632 3.23958 12.6113 2.20833 14.098 2.20833C16.0287 2.20833 17.4768 3.77083 17.4768 5.85417C17.4768 8.86458 14.4455 11.8333 9.85029 16.3229Z" fill="#363636"/>
</svg>
