<svg width="17" height="19" viewBox="0 0 17 19" fill="none" xmlns="http://www.w3.org/2000/svg">
    <path
        d="M13.9043 0H3.36838C1.67386 0 0.29541 1.4915 0.29541 3.325V19L6.44134 15.675L12.5873 19V10.45H16.9772V3.325C16.9772 1.4915 15.5988 0 13.9043 0ZM10.8313 15.9258L6.44134 13.5508L2.05139 15.9258V3.325C2.05139 2.53935 2.64228 1.9 3.36838 1.9H11.1403C10.9394 2.34373 10.8337 2.83087 10.8313 3.325V15.9258ZM15.2212 8.55H12.5873V3.325C12.5873 2.53935 13.1782 1.9 13.9043 1.9C14.6304 1.9 15.2212 2.53935 15.2212 3.325V8.55Z"
        fill="#363636" />
</svg>
